<svg width="30" height="31" viewBox="0 0 30 31" fill="none" xmlns="http://www.w3.org/2000/svg">
<path d="M21.7969 8.19385H18.0469V6.08447C18.0469 5.82666 17.8359 5.61572 17.5781 5.61572H1.875C1.61719 5.61572 1.40625 5.82666 1.40625 6.08447V21.7876C1.40625 22.0454 1.61719 22.2563 1.875 22.2563H4.25391C4.47656 23.6509 5.68945 24.7173 7.14844 24.7173C8.60742 24.7173 9.81445 23.6509 10.043 22.2563H17.5781H19.957C20.1797 23.6509 21.3926 24.7173 22.8516 24.7173C24.3105 24.7173 25.5176 23.6509 25.7461 22.2563H28.125C28.3828 22.2563 28.5938 22.0454 28.5938 21.7876V14.9907C28.5938 11.2407 25.5469 8.19385 21.7969 8.19385ZM27.6445 14.5806H23.0801C22.1074 14.5806 21.3105 13.7896 21.3105 12.811V9.13135H21.7969C24.8906 9.13135 27.4277 11.5396 27.6445 14.5806ZM17.1094 6.55322V17.0415H2.34375V6.55322H17.1094ZM4.25391 21.3188H2.34375V17.979H17.1094V21.3188H10.043C9.82031 19.9243 8.60742 18.8579 7.14844 18.8579C5.68945 18.8579 4.48242 19.9243 4.25391 21.3188ZM7.14844 23.7798C6.05273 23.7798 5.15625 22.8833 5.15625 21.7876C5.15625 20.6919 6.05273 19.7954 7.14844 19.7954C8.24414 19.7954 9.14062 20.6919 9.14062 21.7876C9.14062 22.8833 8.24414 23.7798 7.14844 23.7798ZM22.8516 23.7798C21.7559 23.7798 20.8594 22.8833 20.8594 21.7876C20.8594 20.6919 21.7559 19.7954 22.8516 19.7954C23.9473 19.7954 24.8438 20.6919 24.8438 21.7876C24.8438 22.8833 23.9473 23.7798 22.8516 23.7798ZM25.7461 21.3188C25.5234 19.9243 24.3105 18.8579 22.8516 18.8579C21.3926 18.8579 20.1855 19.9243 19.957 21.3188H18.0469V9.13135H20.373V12.811C20.373 14.3052 21.5859 15.5181 23.0801 15.5181H27.6562V21.3188H25.7461Z" fill="#141416"/>
</svg>
