<svg width="20" height="20" viewBox="0 0 20 20" fill="none" xmlns="http://www.w3.org/2000/svg">
<path d="M18.7213 4.2325C18.7162 4.21125 18.7162 4.19125 18.7087 4.17125C18.67 4.0625 18.6038 3.97125 18.5163 3.9C18.5087 3.8925 18.5075 3.88125 18.5 3.875L17.5 3.125V0.625C17.5 0.525 17.4713 0.435 17.43 0.35125C17.4263 0.345 17.4287 0.3375 17.425 0.33C17.4175 0.31625 17.4013 0.31 17.3937 0.29625C17.35 0.2275 17.295 0.17 17.2288 0.12375C17.2063 0.10875 17.1875 0.0925 17.1637 0.08C17.0763 0.03375 16.9812 0 16.875 0H3.125C3.01875 0 2.92375 0.03375 2.835 0.08C2.81125 0.0925 2.7925 0.1075 2.77 0.12375C2.705 0.17125 2.65 0.2275 2.60625 0.29625C2.5975 0.31 2.5825 0.31625 2.575 0.33C2.57125 0.33625 2.5725 0.345 2.57 0.35125C2.52875 0.435 2.5 0.525 2.5 0.625V3.125L1.5 3.875C1.4925 3.88125 1.49125 3.8925 1.48375 3.89875C1.39625 3.97 1.33 4.06125 1.29125 4.17C1.28375 4.19125 1.28375 4.21 1.27875 4.23125C1.2675 4.28 1.25 4.32375 1.25 4.375V17.5C1.25 18.8787 2.37125 20 3.75 20H16.25C17.6287 20 18.75 18.8787 18.75 17.5V4.375C18.75 4.32375 18.7325 4.28 18.7213 4.2325ZM4.895 2.15375L4.29375 1.25H15.7062L15.105 2.15375C14.9212 2.42875 14.9837 2.80125 15.25 3L16.25 3.75H3.75L4.75 3C5.01625 2.80125 5.08 2.42875 4.895 2.15375ZM17.5 17.5C17.5 18.1887 16.94 18.75 16.25 18.75H3.75C3.06 18.75 2.5 18.1887 2.5 17.5V5H17.5V17.5Z" fill="#141416"/>
<path d="M14.375 7.5C14.03 7.5 13.75 7.78 13.75 8.125V10C13.75 12.0675 12.0675 13.75 10 13.75C7.9325 13.75 6.25 12.0675 6.25 10V8.125C6.25 7.78 5.97 7.5 5.625 7.5C5.28 7.5 5 7.78 5 8.125V10C5 12.7575 7.2425 15 10 15C12.7575 15 15 12.7575 15 10V8.125C15 7.78 14.72 7.5 14.375 7.5Z" fill="#141416"/>
</svg>
