<svg width="30" height="31" viewBox="0 0 30 31" fill="none" xmlns="http://www.w3.org/2000/svg">
<g clip-path="url(#clip0_14_59)">
<path d="M10.3125 18.5064C10.5906 18.5065 10.8625 18.424 11.0938 18.2695C11.3251 18.115 11.5053 17.8954 11.6118 17.6385C11.7183 17.3816 11.7462 17.0988 11.6919 16.826C11.6377 16.5532 11.5038 16.3026 11.3072 16.106C11.0392 15.8505 10.6832 15.708 10.313 15.708C9.94274 15.708 9.58672 15.8505 9.31874 16.106C9.12217 16.3026 8.98829 16.5531 8.93404 16.8258C8.87979 17.0985 8.9076 17.3812 9.01395 17.6381C9.1203 17.895 9.30043 18.1146 9.53156 18.2691C9.76269 18.4237 10.0344 18.5063 10.3125 18.5064ZM9.98109 16.7688C10.069 16.6809 10.1882 16.6315 10.3125 16.6315C10.4368 16.6315 10.556 16.6809 10.6439 16.7688C10.7318 16.8567 10.7811 16.9759 10.7811 17.1002C10.7811 17.2245 10.7318 17.3437 10.6439 17.4316C10.5547 17.5169 10.436 17.5645 10.3125 17.5645C10.189 17.5645 10.0703 17.5169 9.98109 17.4316C9.89321 17.3437 9.84385 17.2245 9.84385 17.1002C9.84385 16.9759 9.89321 16.8567 9.98109 16.7688Z" fill="#141416"/>
<path d="M11.3067 21.731C11.0387 21.4755 10.6827 21.333 10.3125 21.333C9.94226 21.333 9.58624 21.4755 9.31826 21.731C9.12162 21.9276 8.98771 22.1782 8.93347 22.451C8.87923 22.7238 8.90709 23.0065 9.01353 23.2634C9.11997 23.5204 9.30022 23.74 9.53147 23.8945C9.76272 24.049 10.0346 24.1315 10.3127 24.1315C10.5908 24.1315 10.8627 24.049 11.094 23.8945C11.3252 23.74 11.5055 23.5204 11.6119 23.2634C11.7183 23.0065 11.7462 22.7238 11.692 22.451C11.6377 22.1782 11.5033 21.9276 11.3067 21.731ZM10.6439 23.0566C10.5547 23.1419 10.4359 23.1895 10.3125 23.1895C10.189 23.1895 10.0703 23.1419 9.98107 23.0566C9.9363 23.0133 9.90059 22.9616 9.87603 22.9044C9.85146 22.8472 9.83853 22.7857 9.83799 22.7235C9.83745 22.6612 9.84931 22.5995 9.87288 22.5419C9.89644 22.4843 9.93125 22.432 9.97526 22.388C10.0193 22.3439 10.0716 22.3091 10.1292 22.2856C10.1868 22.262 10.2486 22.2501 10.3108 22.2507C10.373 22.2512 10.4345 22.2642 10.4917 22.2887C10.5489 22.3133 10.6006 22.349 10.6439 22.3938C10.7318 22.4817 10.7811 22.6009 10.7811 22.7252C10.7811 22.8495 10.7318 22.9687 10.6439 23.0566Z" fill="#141416"/>
<path d="M14.0625 19.4438H6.5625C6.43818 19.4438 6.31895 19.4932 6.23104 19.5811C6.14314 19.669 6.09375 19.7883 6.09375 19.9126C6.09375 20.0369 6.14314 20.1561 6.23104 20.2441C6.31895 20.332 6.43818 20.3813 6.5625 20.3813H14.0625C14.1868 20.3813 14.306 20.332 14.394 20.2441C14.4819 20.1561 14.5312 20.0369 14.5312 19.9126C14.5312 19.7883 14.4819 19.669 14.394 19.5811C14.306 19.4932 14.1868 19.4438 14.0625 19.4438Z" fill="#141416"/>
<path d="M29.5312 5.8501C29.4069 5.8501 29.2877 5.89948 29.1998 5.98739C29.1119 6.0753 29.0625 6.19453 29.0625 6.31885V15.2607L15.7233 28.6046C15.6785 28.6479 15.6428 28.6996 15.6182 28.7568C15.5937 28.814 15.5807 28.8755 15.5802 28.9377C15.5796 29 15.5915 29.0617 15.6151 29.1193C15.6386 29.1769 15.6735 29.2292 15.7175 29.2733C15.7615 29.3173 15.8138 29.3521 15.8714 29.3756C15.929 29.3992 15.9908 29.4111 16.053 29.4105C16.1152 29.41 16.1767 29.3971 16.2339 29.3725C16.2911 29.3479 16.3428 29.3122 16.3861 29.2674L29.8626 15.7876C29.9063 15.7439 29.941 15.692 29.9645 15.6349C29.9881 15.5778 30.0002 15.5166 30 15.4548V6.31885C30 6.19453 29.9506 6.0753 29.8627 5.98739C29.7748 5.89948 29.6556 5.8501 29.5312 5.8501Z" fill="#141416"/>
<path d="M27.1875 14.2877V3.70051L29.8626 1.02535C29.948 0.936946 29.9953 0.818539 29.9942 0.695634C29.9931 0.572729 29.9438 0.455161 29.8569 0.368251C29.77 0.281341 29.6525 0.232043 29.5296 0.230975C29.4067 0.229907 29.2882 0.277154 29.1998 0.362541L26.5247 3.0377H15.9375C15.8132 3.03772 15.694 3.08713 15.6061 3.17504L0.137335 18.6438C0.0494582 18.7317 9.15527e-05 18.8509 9.15527e-05 18.9752C9.15527e-05 19.0995 0.0494582 19.2187 0.137335 19.3066L10.9186 30.0879C11.0065 30.1757 11.1257 30.2251 11.25 30.2251C11.3743 30.2251 11.4935 30.1757 11.5814 30.0879L27.0501 14.6191C27.1381 14.5312 27.1875 14.412 27.1875 14.2877ZM11.25 29.0936L1.13155 18.9752L16.1316 3.9752H25.5872L22.3842 7.17817C21.8983 6.85656 21.3103 6.72687 20.7342 6.81426C20.1581 6.90164 19.635 7.19987 19.2663 7.65111C18.8976 8.10234 18.7097 8.67441 18.7389 9.25636C18.7681 9.83832 19.0125 10.3887 19.4245 10.8007C19.8365 11.2127 20.3869 11.457 20.9688 11.4863C21.5508 11.5155 22.1229 11.3276 22.5741 10.9589C23.0253 10.5902 23.3235 10.0671 23.4109 9.491C23.4983 8.9149 23.3686 8.32688 23.047 7.84098L26.25 4.63801V14.0936L11.25 29.0936ZM22.5 9.13145C22.5 9.40958 22.4175 9.68146 22.263 9.91272C22.1085 10.144 21.8888 10.3242 21.6319 10.4307C21.3749 10.5371 21.0922 10.5649 20.8194 10.5107C20.5466 10.4564 20.296 10.3225 20.0994 10.1258C19.9027 9.92915 19.7688 9.67858 19.7145 9.40579C19.6603 9.13301 19.6881 8.85026 19.7945 8.5933C19.901 8.33634 20.0812 8.11671 20.3125 7.96219C20.5437 7.80767 20.8156 7.7252 21.0937 7.7252C21.3026 7.72601 21.5085 7.77408 21.6961 7.86582L20.7623 8.79957C20.7176 8.84281 20.6819 8.89454 20.6573 8.95173C20.6327 9.00891 20.6198 9.07043 20.6192 9.13267C20.6187 9.19491 20.6306 9.25663 20.6541 9.31424C20.6777 9.37185 20.7125 9.42418 20.7565 9.46819C20.8005 9.51221 20.8529 9.54701 20.9105 9.57058C20.9681 9.59415 21.0298 9.60601 21.0921 9.60547C21.1543 9.60493 21.2158 9.592 21.273 9.56743C21.3302 9.54286 21.3819 9.50715 21.4251 9.46238L22.3594 8.5291C22.4511 8.7167 22.4992 8.92262 22.5 9.13145Z" fill="#141416"/>
</g>
<defs>
<clipPath id="clip0_14_59">
<rect width="30" height="30" fill="white" transform="translate(0 0.225098)"/>
</clipPath>
</defs>
</svg>
