<svg width="20" height="20" viewBox="0 0 20 20" fill="none" xmlns="http://www.w3.org/2000/svg">
<g clip-path="url(#clip0_63_4225)">
<path d="M14.7917 0.833313C12.5732 0.833313 10.741 2.89386 10 3.86636C9.25902 2.89386 7.42676 0.833313 5.20832 0.833313C2.33645 0.833313 0 3.4737 0 6.71874C0 8.48917 0.702734 10.1391 1.93277 11.2683C1.95066 11.2992 1.97266 11.3277 1.99828 11.3534L9.70582 19.045C9.78719 19.126 9.8934 19.1667 10 19.1667C10.1066 19.1667 10.2132 19.126 10.2946 19.0446L18.2585 11.0836L18.3407 11.0038C18.4058 10.9424 18.4701 10.8801 18.5421 10.8004C18.5722 10.7707 18.597 10.7373 18.6161 10.7011C19.5093 9.60734 20 8.19659 20 6.71874C20 3.4737 17.6636 0.833313 14.7917 0.833313ZM17.9228 10.2323C17.9114 10.2458 17.9008 10.26 17.8914 10.2746C17.8524 10.3194 17.8096 10.3589 17.7673 10.3992L9.99961 18.1612L2.6823 10.8585C2.65871 10.8121 2.62574 10.7698 2.58547 10.7344C1.47176 9.76195 0.83332 8.29831 0.83332 6.71874C0.83332 3.93308 2.79582 1.66667 5.20832 1.66667C7.59359 1.66667 9.6293 4.77784 9.64965 4.80917C9.80348 5.04679 10.1965 5.04679 10.3504 4.80917C10.3707 4.77784 12.4064 1.66667 14.7917 1.66667C17.2042 1.66667 19.1667 3.93312 19.1667 6.71874C19.1667 8.0314 18.7248 9.27937 17.9228 10.2323Z" fill="#141416"/>
</g>
<defs>
<clipPath id="clip0_63_4225">
<rect width="20" height="20" fill="white"/>
</clipPath>
</defs>
</svg>
