<svg width="24" height="23" viewBox="0 0 24 23" fill="none" xmlns="http://www.w3.org/2000/svg">
<path fill-rule="evenodd" clip-rule="evenodd" d="M3.54065 4.80581C2.80611 6.08366 2.80611 7.79635 2.80611 11.2254C2.80611 14.6536 2.80611 16.3672 3.54065 17.645C4.02785 18.4932 4.7315 19.1969 5.5797 19.6841C6.85755 20.4186 8.57024 20.4186 11.9993 20.4186C15.4274 20.4186 17.141 20.4186 18.4189 19.6841C19.2671 19.1969 19.9707 18.4932 20.4579 17.645C21.1925 16.3672 21.1925 14.6545 21.1925 11.2254C21.1925 7.79727 21.1925 6.08366 20.4579 4.80581C19.9707 3.95761 19.2671 3.25397 18.4189 2.76676C17.141 2.03223 15.4284 2.03223 11.9993 2.03223C8.57116 2.03223 6.85755 2.03223 5.5797 2.76676C4.7315 3.25397 4.02785 3.95761 3.54065 4.80581ZM15.8531 18.5248C14.9365 18.6075 13.746 18.6094 11.9993 18.6094C10.2526 18.6094 9.06207 18.6075 8.14551 18.5248C7.25377 18.4448 6.79871 18.2987 6.47971 18.1157C5.90915 17.788 5.43582 17.3146 5.10808 16.7441C4.92422 16.4251 4.77897 15.97 4.69899 15.0783C4.61625 14.1617 4.61441 12.9712 4.61441 11.2245C4.61441 9.47779 4.61625 8.28727 4.69899 7.37071C4.77897 6.47897 4.92514 6.02391 5.10808 5.7049C5.43582 5.13435 5.90915 4.66102 6.47971 4.33328C6.79871 4.14942 7.25377 4.00417 8.14551 3.92418C9.06207 3.84145 10.2526 3.83961 11.9993 3.83961C13.746 3.83961 14.9365 3.84145 15.8531 3.92418C16.7448 4.00417 17.1999 4.15034 17.518 4.33328C18.0889 4.66148 18.5623 5.13493 18.8905 5.7049C19.0735 6.02391 19.2196 6.47897 19.2996 7.37071C19.3823 8.28727 19.3842 9.47779 19.3842 11.2245C19.3842 12.9712 19.3823 14.1617 19.2996 15.0783C19.2196 15.97 19.0735 16.4251 18.8905 16.7432C18.5629 17.314 18.0895 17.7877 17.5189 18.1157C17.1999 18.2987 16.7448 18.4448 15.8531 18.5248ZM15.5552 6.43117C15.5552 6.10335 15.6854 5.78896 15.9172 5.55717C16.149 5.32537 16.4634 5.19514 16.7912 5.19514C17.1191 5.19514 17.4334 5.32537 17.6652 5.55717C17.897 5.78896 18.0273 6.10335 18.0273 6.43117C18.0273 6.75886 17.8971 7.07313 17.6654 7.30484C17.4337 7.53656 17.1194 7.66673 16.7917 7.66673C16.464 7.66673 16.1497 7.53656 15.918 7.30484C15.6863 7.07313 15.5561 6.75886 15.5561 6.43117H15.5552ZM11.9993 6.43117C11.3698 6.43117 10.7465 6.55515 10.165 6.79604C9.58342 7.03692 9.055 7.39 8.6099 7.8351C8.1648 8.2802 7.81173 8.80861 7.57084 9.39017C7.32995 9.97172 7.20597 10.595 7.20597 11.2245C7.20597 11.854 7.32995 12.4773 7.57084 13.0588C7.81173 13.6404 8.1648 14.1688 8.6099 14.6139C9.055 15.059 9.58342 15.4121 10.165 15.653C10.7465 15.8938 11.3698 16.0178 11.9993 16.0178C13.2707 16.0178 14.49 15.5128 15.389 14.6138C16.288 13.7147 16.7931 12.4954 16.7931 11.224C16.7931 9.95264 16.288 8.73332 15.389 7.83431C14.49 6.93531 13.2707 6.43117 11.9993 6.43117ZM9.13654 11.2254C9.13654 10.8495 9.21059 10.4772 9.35445 10.1299C9.49832 9.78256 9.70919 9.46697 9.97502 9.20114C10.2409 8.93531 10.5564 8.72444 10.9038 8.58057C11.2511 8.4367 11.6234 8.36265 11.9993 8.36265C12.3752 8.36265 12.7475 8.4367 13.0948 8.58057C13.4422 8.72444 13.7577 8.93531 14.0236 9.20114C14.2894 9.46697 14.5003 9.78256 14.6441 10.1299C14.788 10.4772 14.8621 10.8495 14.8621 11.2254C14.8621 11.9847 14.5604 12.7128 14.0236 13.2497C13.4867 13.7866 12.7585 14.0882 11.9993 14.0882C11.24 14.0882 10.5119 13.7866 9.97502 13.2497C9.43815 12.7128 9.13654 11.9847 9.13654 11.2254Z" fill="#F87C56"/>
</svg>
