<svg width="30" height="31" viewBox="0 0 30 31" fill="none" xmlns="http://www.w3.org/2000/svg">
<path d="M24.2578 15.2251C24.2578 10.1216 20.1035 5.96729 15 5.96729C9.89648 5.96729 5.74219 10.1216 5.74219 15.2251C5.74219 20.3286 9.89648 24.4829 15 24.4829C20.1035 24.4829 24.2578 20.3286 24.2578 15.2251ZM6.67969 15.2251C6.67969 10.6372 10.4121 6.90479 15 6.90479C19.5879 6.90479 23.3203 10.6372 23.3203 15.2251C23.3203 19.813 19.5879 23.5454 15 23.5454C10.4121 23.5454 6.67969 19.813 6.67969 15.2251Z" fill="#141416"/>
<path d="M27.0117 11.8267H26.0918C24.6387 7.08057 20.2148 3.62354 15 3.62354C9.78516 3.62354 5.36133 7.08057 3.9082 11.8267H2.98828C2.11523 11.8267 1.40625 12.5356 1.40625 13.4087V17.0415C1.40625 17.9146 2.11523 18.6235 2.98828 18.6235H4.25977C4.40625 18.6235 4.54102 18.5532 4.63477 18.4419C4.72852 18.3306 4.75195 18.1724 4.7168 18.0317C4.45898 17.1177 4.33594 16.1743 4.33594 15.2251C4.33594 9.34229 9.11719 4.56104 15 4.56104C20.8828 4.56104 25.6641 9.34229 25.6641 15.2251C25.6641 20.8384 21.3047 25.4556 15.791 25.8599C15.627 25.5962 15.334 25.4204 15 25.4204C14.4844 25.4204 14.0625 25.8423 14.0625 26.3579C14.0625 26.8735 14.4844 27.2954 15 27.2954C15.3574 27.2954 15.668 27.0903 15.8262 26.7974C20.6777 26.4517 24.7148 23.1177 26.0918 18.6235H27.0117C27.8848 18.6235 28.5938 17.9146 28.5938 17.0415V13.4087C28.5938 12.5356 27.8848 11.8267 27.0117 11.8267ZM2.98828 17.686C2.63086 17.686 2.34375 17.3989 2.34375 17.0415V13.4087C2.34375 13.0513 2.63086 12.7642 2.98828 12.7642H3.66211C3.49219 13.5552 3.39844 14.3813 3.39844 15.2251C3.39844 16.0571 3.48633 16.8774 3.66211 17.686H2.98828ZM27.6562 17.0415C27.6562 17.3989 27.3691 17.686 27.0117 17.686H26.3379C26.5078 16.895 26.6016 16.0688 26.6016 15.2251C26.6016 14.3813 26.5078 13.5552 26.3379 12.7642H27.0117C27.3691 12.7642 27.6562 13.0513 27.6562 13.4087V17.0415Z" fill="#141416"/>
</svg>
