<svg width="20" height="20" viewBox="0 0 20 20" fill="none" xmlns="http://www.w3.org/2000/svg">
<path d="M10.2345 9.93142C9.33841 9.93142 8.4624 9.66569 7.71729 9.16782C6.97219 8.66996 6.39145 7.96232 6.04851 7.13441C5.70558 6.30649 5.61585 5.39547 5.79068 4.51656C5.9655 3.63764 6.39703 2.83031 7.03069 2.19665C7.66435 1.56299 8.47169 1.13146 9.3506 0.95663C10.2295 0.781804 11.1405 0.871531 11.9684 1.21447C12.7964 1.5574 13.504 2.13814 14.0019 2.88325C14.4997 3.62835 14.7655 4.50436 14.7655 5.4005C14.7641 6.60176 14.2863 7.75345 13.4369 8.60287C12.5875 9.4523 11.4358 9.93009 10.2345 9.93142ZM10.2345 2.12816C9.58733 2.12816 8.95466 2.32008 8.41653 2.67965C7.8784 3.03922 7.45897 3.55029 7.2113 4.14823C6.96362 4.74617 6.89882 5.40413 7.02508 6.0389C7.15135 6.67367 7.46301 7.25674 7.92065 7.71438C8.3783 8.17203 8.96137 8.48369 9.59614 8.60995C10.2309 8.73622 10.8889 8.67141 11.4868 8.42374C12.0847 8.17606 12.5958 7.75664 12.9554 7.21851C13.315 6.68037 13.5069 6.0477 13.5069 5.4005C13.5059 4.53292 13.1608 3.70117 12.5473 3.08771C11.9339 2.47424 11.1021 2.12916 10.2345 2.12816Z" fill="#141416"/>
<path d="M18.1007 19.1304C17.9338 19.1304 17.7738 19.0641 17.6558 18.9461C17.5377 18.8281 17.4714 18.6681 17.4714 18.5012V16.9455C17.4701 15.7506 16.9948 14.605 16.1499 13.7601C15.305 12.9151 14.1594 12.4399 12.9644 12.4385H7.50467C6.30975 12.4399 5.16415 12.9151 4.31921 13.7601C3.47427 14.605 2.999 15.7506 2.99766 16.9455V18.5012C2.99766 18.6681 2.93136 18.8281 2.81335 18.9461C2.69533 19.0641 2.53527 19.1304 2.36837 19.1304C2.20147 19.1304 2.04141 19.0641 1.92339 18.9461C1.80538 18.8281 1.73907 18.6681 1.73907 18.5012V16.9455C1.74091 15.417 2.34894 13.9515 3.4298 12.8707C4.51067 11.7898 5.9761 11.1818 7.50467 11.1799H12.9638C14.4925 11.1816 15.9581 11.7896 17.0391 12.8704C18.1201 13.9513 18.7282 15.4169 18.73 16.9455V18.5012C18.73 18.6681 18.6637 18.8281 18.5457 18.9461C18.4277 19.0641 18.2676 19.1304 18.1007 19.1304Z" fill="#141416"/>
</svg>
