<svg width="30" height="31" viewBox="0 0 30 31" fill="none" xmlns="http://www.w3.org/2000/svg">
<path d="M29.5 14.9709H29V9.47529C29 8.37249 28.1031 7.4753 27.0001 7.4753H25.9499L24.522 4.27655C24.4092 4.02507 24.1133 3.91058 23.8618 4.02384L19.7491 5.85911L18.0313 2.25988C17.9126 2.01132 17.6157 1.90491 17.3653 2.0238L5.90777 7.47525H1.99998C0.896953 7.4753 0 8.37255 0 9.47534V26.4753C0 27.5781 0.896953 28.4753 1.99998 28.4753H27C28.103 28.4753 29 27.5781 29 26.4753V20.9709H29.5C29.7763 20.9709 29.9999 20.747 29.9999 20.4709V15.4709C30 15.1948 29.7763 14.9709 29.5 14.9709ZM23.8125 5.14087L24.8547 7.47536H20.5204L20.1799 6.76181L23.8125 5.14087ZM17.3438 3.14136L19.0464 6.70843C19.0479 6.71195 19.0472 6.71575 19.0488 6.71921C19.0508 6.72372 19.0549 6.72636 19.0571 6.73075L19.4125 7.4753H8.23494L17.3438 3.14136ZM28 26.4753C28 27.0269 27.5513 27.4753 27 27.4753H1.99998C1.44873 27.4753 0.999961 27.0269 0.999961 26.4753V9.47534C0.999961 8.9238 1.44867 8.47532 1.99998 8.47532H25.6243C25.6249 8.47532 25.6254 8.47556 25.626 8.47556C25.6263 8.47556 25.6267 8.47532 25.6271 8.47532H27C27.5512 8.47532 28 8.9238 28 9.47534V14.971H23C21.897 14.971 21.0001 15.8682 21.0001 16.9709V18.9709C21.0001 20.0737 21.897 20.9709 23 20.9709H28V26.4753ZM29 19.9709H28.5024C28.5015 19.9709 28.5008 19.9705 28.5 19.9705C28.4992 19.9705 28.4984 19.9709 28.4976 19.9709H23C22.4487 19.9709 22 19.5225 22 18.9709V16.9709C22 16.4195 22.4487 15.9709 23 15.9709H29V19.9709Z" fill="#141416"/>
</svg>
